<svg id="Layer_1" data-name="Layer 1" xmlns="http://www.w3.org/2000/svg" width="475.029" height="74.153" viewBox="0 0 475.029 74.153"><title>logo-placeholder</title><path d="M3.364,2.091h30.6A46.182,46.182,0,0,1,46.71,3.576,21.447,21.447,0,0,1,54.8,7.669a14.334,14.334,0,0,1,4.248,6.039,21.557,21.557,0,0,1,1.228,7.318,19,19,0,0,1-2,8.8,15.853,15.853,0,0,1-7.012,6.551q6.038,2.969,8.5,7.216a19.585,19.585,0,0,1,2.457,9.979,23.925,23.925,0,0,1-1.434,8.239,17.142,17.142,0,0,1-4.708,6.908,23.443,23.443,0,0,1-8.648,4.708,43.073,43.073,0,0,1-13.152,1.74H3.364ZM21.891,30.136H32.535q5.117,0,6.959-1.689a6.4,6.4,0,0,0,1.843-4.964q0-3.478-2.149-5.066T31.511,16.83h-9.62Zm0,30.3H32.637q6.242,0,8.5-2.2a7.988,7.988,0,0,0,2.252-5.987,7.417,7.417,0,0,0-2.2-5.783q-2.2-2-7.933-2H21.891Z" transform="translate(-3.364 -1.017)" fill="#231f20"/><path d="M133.965,25.223a26.794,26.794,0,0,1-2.661,12.23A20.716,20.716,0,0,1,123.116,46L138.06,75.17H117.282L105.307,49.992H94.662V75.17H75.932V2.091h28.863A43.82,43.82,0,0,1,118.92,4.036,23.864,23.864,0,0,1,127.875,9.2a18.132,18.132,0,0,1,4.708,7.421A27.307,27.307,0,0,1,133.965,25.223Zm-39.3,9.519h9.621q5.936,0,8.342-2.3a8.716,8.716,0,0,0,2.405-6.6,8.013,8.013,0,0,0-2.559-6.346q-2.561-2.25-8.8-2.252H94.662Z" transform="translate(-3.364 -1.017)" fill="#231f20"/><path d="M194.762,2.091,220.145,75.17H199.776l-4.2-14.022H170.913L166.819,75.17H147.065L172.448,2.091Zm-19.038,43.4H190.77L183.3,20.31Z" transform="translate(-3.364 -1.017)" fill="#231f20"/><path d="M232.527,2.091h17.2l26.3,41.862V2.091h18.525V75.17h-16.99L251.054,33.41V75.17H232.527Z" transform="translate(-3.364 -1.017)" fill="#231f20"/><path d="M312.259,75.17V2.091H341.02q18.217,0,27.584,9.109t9.365,26.611q0,18.016-9.877,27.687t-28.2,9.672ZM331.91,58.589H340.2q9,0,13.2-5.271t4.2-14.893q0-9.62-3.89-14.687t-12.486-5.066H331.91Z" transform="translate(-3.364 -1.017)" fill="#231f20"/><path d="M411.417,1.017a23.81,23.81,0,0,1,8.9,1.553,17.767,17.767,0,0,1,6.537,4.418,18.926,18.926,0,0,1,4.03,6.985,29.179,29.179,0,0,1,1.373,9.254,29.342,29.342,0,0,1-1.4,9.374,19.518,19.518,0,0,1-4.09,7.1,17.886,17.886,0,0,1-6.627,4.508,24.051,24.051,0,0,1-9.016,1.582,23.825,23.825,0,0,1-8.9-1.552,17.766,17.766,0,0,1-6.538-4.418,18.921,18.921,0,0,1-4.03-6.985,29.158,29.158,0,0,1-1.373-9.255,29.34,29.34,0,0,1,1.4-9.373,19.538,19.538,0,0,1,4.09-7.105A17.932,17.932,0,0,1,402.4,2.6,24.067,24.067,0,0,1,411.417,1.017Zm-9.254,22.39q0,6.149,2.269,9.344a7.859,7.859,0,0,0,6.866,3.194q4.6,0,6.836-3.194t2.239-9.344q0-6.149-2.239-9.344T411.3,10.869a7.862,7.862,0,0,0-6.866,3.194Q402.161,17.258,402.163,23.407Z" transform="translate(-3.364 -1.017)" fill="#231f20"/><path d="M440.972,2.092H451l15.345,24.419V2.092h10.807V44.721h-9.911L451.778,20.362V44.721H440.972Z" transform="translate(-3.364 -1.017)" fill="#231f20"/><rect x="388.473" y="54.173" width="86.555" height="19.908" fill="#231f20"/></svg>